PathFileType	4	(X/Y/Z)	/Users/itak/Documents/Research/Walk-IL/dataset/trc/00067_00006.trc
DataRate	CameraRate	NumFrames	NumMarkers	Units	OrigDataRate	OrigDataStartFrame	OrigNumFrames
100.000000	100.000000	4	53	mm	100.000000	340	680
Frame#	Time	RPSI			LPSI			L3			STRN			T10			C7			CLAV			RBAK			LBAK			LSHO			LUPA			LAEL			LAOL			LWTS			LWPS			LFRA			LIFD			LHPS			LHTS			RSHO			RUPA			RAEL			RAOL			RWTS			RWPS			RFRA			RIFD			RHTS			RHPS			RBHD			LFHD			RFHD			LBHD			LHIP			RHIP			RASI			LASI			LKNE			LTHI			LANK			LTIP			LTOE			LMT1			LMT5			LHEE			RKNE			RTHI			RANK			RTIP			RTOE			RMT1			RMT5			RHEE			
		X1	Y1	Z1	X2	Y2	Z2	X3	Y3	Z3	X4	Y4	Z4	X5	Y5	Z5	X6	Y6	Z6	X7	Y7	Z7	X8	Y8	Z8	X9	Y9	Z9	X10	Y10	Z10	X11	Y11	Z11	X12	Y12	Z12	X13	Y13	Z13	X14	Y14	Z14	X15	Y15	Z15	X16	Y16	Z16	X17	Y17	Z17	X18	Y18	Z18	X19	Y19	Z19	X20	Y20	Z20	X21	Y21	Z21	X22	Y22	Z22	X23	Y23	Z23	X24	Y24	Z24	X25	Y25	Z25	X26	Y26	Z26	X27	Y27	Z27	X28	Y28	Z28	X29	Y29	Z29	X30	Y30	Z30	X31	Y31	Z31	X32	Y32	Z32	X33	Y33	Z33	X34	Y34	Z34	X35	Y35	Z35	X36	Y36	Z36	X37	Y37	Z37	X38	Y38	Z38	X39	Y39	Z39	X40	Y40	Z40	X41	Y41	Z41	X42	Y42	Z42	X43	Y43	Z43	X44	Y44	Z44	X45	Y45	Z45	X46	Y46	Z46	X47	Y47	Z47	X48	Y48	Z48	X49	Y49	Z49	X50	Y50	Z50	X51	Y51	Z51	X52	Y52	Z52	X53	Y53	Z53	

341	3.4	180.2096099853516	1006.121154785156	-569.8248901367188	196.9007873535156	992.1417236328125	-396.8474426269531	185.0570983886719	1061.936767578125	-478.1195373535156	-71.67362213134766	1255.028198242188	-475.5423889160156	198.7662811279297	1195.272705078125	-474.6731262207031	133.0923919677734	1460.528076171875	-478.4677124023438	-41.84880447387695	1369.958618164062	-475.3196105957031	199.2730560302734	1322.6513671875	-549.1104125976562	157.8318328857422	1427.489868164062	-377.5393371582031	55.32536315917969	1431.536865234375	-304.1830139160156	82.64196014404297	1312.8173828125	-221.1640625	82.00813293457031	1100.426147460938	-183.2341613769531	137.8047485351562	1082.929443359375	-272.8577575683594	-12.12599658966064	857.8902587890625	-227.642578125	52.61476516723633	849.7965087890625	-172.4389953613281	65.19876098632812	991.2167358398438	-168.1855010986328	-17.91769599914551	671.6621704101562	-244.2291107177734	22.70064926147461	766.87841796875	-173.8382720947266	-30.49444198608398	774.0801391601562	-221.6578979492188	71.00442504882812	1421.125610351562	-650.521484375	86.50886535644531	1354.345581054688	-712.6190185546875	129.5592956542969	1101.641235351562	-767.4124145507812	109.2725448608398	1068.924682617188	-673.8001098632812	-19.79018974304199	848.2843627929688	-747.8106079101562	54.41228485107422	836.196044921875	-794.5238037109375	116.9418029785156	1018.70849609375	-782.5366821289062	-6.939276695251465	657.6549682617188	-726.301025390625	-34.1215934753418	740.83935546875	-749.5877685546875	25.58747291564941	744.128662109375	-797.03759765625	119.6517562866211	1628.2529296875	-500.4527587890625	-88.73374938964844	1675.6416015625	-475.7973937988281	-5.172874927520752	1677.526611328125	-381.8251953125	19.80947113037109	1619.017944335938	-595.1121826171875	91.78862762451172	926.6905517578125	-308.926513671875	116.1827926635742	937.2211303710938	-648.9974365234375	-8.64501953125	952.9720458984375	-630.012451171875	-18.40119171142578	940.6276245117188	-362.8394470214844	-99.74515533447266	500.8753662109375	-435.2904968261719	-28.96206474304199	616.8384399414062	-369.809814453125	-49.40976715087891	44.45880508422852	-497.5040588378906	-77.07005310058594	248.6709136962891	-457.5925598144531	-255.7502746582031	40.91220855712891	-503.1706848144531	-208.2412872314453	39.05241012573242	-556.6353149414062	-151.3622283935547	40.27787399291992	-459.5936889648438	0.5576448440551758	42.21161651611328	-576.1337890625	8.079562187194824	497.9325256347656	-690.6760864257812	24.29142761230469	770.8505249023438	-674.5343017578125	412.0523376464844	213.2121276855469	-677.9444580078125	95.76602172851562	406.8904724121094	-699.90478515625	281.4617004394531	48.94423294067383	-674.7142333984375	306.5196533203125	91.44567108154297	-626.8839721679688	348.5195617675781	115.0258865356445	-713.7734375	421.3159484863281	249.18408203125	-616.4083251953125	
342	3.41	169.9317474365234	1006.119750976562	-569.9937744140625	189.3037567138672	992.6561279296875	-397.300537109375	176.3282470703125	1062.8544921875	-478.0133056640625	-80.38103485107422	1255.701904296875	-472.1199035644531	190.0064697265625	1196.134643554688	-474.3743591308594	124.2329559326172	1461.403564453125	-477.2798767089844	-50.42536926269531	1370.64990234375	-472.1888732910156	189.6536712646484	1323.588134765625	-548.7430419921875	150.1038055419922	1428.195556640625	-376.56689453125	48.33776092529297	1431.984130859375	-302.141357421875	75.95150756835938	1313.01171875	-219.4954528808594	74.28498840332031	1100.515502929688	-181.3555908203125	129.7684020996094	1082.736572265625	-271.1263122558594	-23.92738342285156	860.0654907226562	-227.7069854736328	40.74711990356445	850.2376098632812	-172.5656585693359	55.84479141235352	991.38623046875	-167.05126953125	-33.87073135375977	674.3362426757812	-245.6591644287109	8.941489219665527	768.0233154296875	-174.6338806152344	-44.17935943603516	776.809814453125	-222.3453979492188	60.12817001342773	1421.875	-648.7241821289062	75.03087615966797	1355.081909179688	-710.96826171875	118.4414215087891	1102.493530273438	-766.0050048828125	99.322509765625	1069.730712890625	-672.1504516601562	-28.74052619934082	848.2232055664062	-744.7374267578125	44.73920822143555	836.5736083984375	-792.1822509765625	106.1368942260742	1019.535888671875	-780.992431640625	-14.82623481750488	657.69970703125	-723.4932250976562	-42.521728515625	740.7277221679688	-746.4078369140625	16.44500160217285	744.4232177734375	-794.4923706054688	110.6095962524414	1628.833374023438	-499.06689453125	-97.23815155029297	1676.641235351562	-471.2721252441406	-12.28153896331787	1678.277954101562	-378.499267578125	9.358662605285645	1619.9248046875	-592.2794189453125	85.61833190917969	927.1784057617188	-307.5494079589844	103.9171447753906	937.3359985351562	-647.8997802734375	-20.42190170288086	954.2112426757812	-626.8178100585938	-25.46303939819336	941.325439453125	-359.4554443359375	-103.7414627075195	500.1863708496094	-434.0921936035156	-33.32750701904297	616.5847778320312	-368.8099365234375	-49.59955215454102	44.66236114501953	-497.4208679199219	-78.72756195068359	248.3219757080078	-457.1860961914062	-255.9700164794922	40.44828796386719	-503.4524230957031	-208.3868408203125	38.65346527099609	-556.903076171875	-151.5914001464844	40.1688232421875	-459.7543029785156	0.4345987737178802	42.24045562744141	-576.2056274414062	-15.43000221252441	499.7171325683594	-687.7337646484375	7.989113807678223	772.3585205078125	-672.01220703125	389.9369506835938	217.5312347412109	-682.9686889648438	71.82261657714844	408.9586486816406	-698.4715576171875	258.7152099609375	53.06232833862305	-677.6429443359375	285.0618286132812	95.91363525390625	-630.0801391601562	325.0291748046875	120.2134399414062	-717.891845703125	401.0791931152344	253.2045593261719	-621.5805053710938	
343	3.42	159.6477355957031	1006.334655761719	-570.1451416015625	181.7439270019531	993.2932739257812	-397.781494140625	167.6256561279297	1063.770751953125	-477.9220581054688	-88.94316864013672	1256.45751953125	-468.7003479003906	181.4195709228516	1197.017822265625	-474.133544921875	115.5258865356445	1462.296508789062	-476.1479797363281	-58.96567535400391	1371.42041015625	-469.0960388183594	180.1445770263672	1324.530395507812	-548.4102783203125	142.568115234375	1428.943359375	-375.6788635253906	41.59561538696289	1432.497924804688	-300.1619567871094	69.51224517822266	1313.259643554688	-217.9015197753906	66.76107025146484	1100.688354492188	-179.5666198730469	121.8560791015625	1082.59521484375	-269.5349426269531	-35.61624526977539	862.4342041015625	-227.6777496337891	28.99064445495605	850.8894653320312	-172.6371002197266	46.65497970581055	991.6973876953125	-165.9562835693359	-49.88904190063477	677.2850952148438	-246.7945404052734	-4.745064258575439	769.43701171875	-175.2574920654297	-57.81968688964844	779.7994995117188	-222.8524780273438	49.41267776489258	1422.647705078125	-646.9395751953125	63.7289924621582	1355.850463867188	-709.32373046875	107.5000839233398	1103.357299804688	-764.5410766601562	89.50151062011719	1070.569091796875	-670.4774169921875	-37.44221878051758	848.186767578125	-741.7350463867188	35.28851699829102	837.005126953125	-789.8990478515625	95.53352355957031	1020.410827636719	-779.4158935546875	-22.59377861022949	657.7794799804688	-720.8878784179688	-50.80556869506836	740.6762084960938	-743.3875122070312	7.502432346343994	744.7745971679688	-792.0697021484375	101.5837707519531	1629.534912109375	-497.6445007324219	-105.7415924072266	1677.568359375	-466.7085876464844	-19.37817001342773	1678.9873046875	-375.15185546875	-1.031911253929138	1620.923828125	-589.4020385742188	79.57302856445312	927.7389526367188	-306.1764221191406	91.68707275390625	937.7191162109375	-646.7473754882812	-32.12681579589844	955.5601806640625	-623.4771728515625	-32.37863540649414	942.0929565429688	-356.0055541992188	-107.4250183105469	499.4796142578125	-432.7748718261719	-37.41990280151367	616.3604125976562	-367.7397155761719	-49.72372817993164	44.80480194091797	-497.358642578125	-80.19809722900391	248.0027770996094	-456.7179565429688	-256.1067810058594	40.19881057739258	-503.7159423828125	-208.4726104736328	38.34931182861328	-557.1085815429688	-151.7472686767578	40.07560729980469	-459.8793334960938	0.3448297381401062	42.27597045898438	-576.2443237304688	-38.73577499389648	501.853271484375	-683.8966064453125	-8.214523315429688	774.0606079101562	-669.1091918945312	366.8231201171875	220.5438690185547	-687.875732421875	47.87477493286133	411.1788940429688	-696.2971801757812	234.1688995361328	57.09009170532227	-680.3269653320312	261.9552612304688	99.81683349609375	-633.138916015625	299.93505859375	124.5076446533203	-721.8213500976562	380.0506286621094	255.7901458740234	-626.6593017578125	
344	3.43	149.3412322998047	1006.77001953125	-570.2659912109375	174.203857421875	994.0545654296875	-398.2843017578125	158.9285888671875	1064.685302734375	-477.8388977050781	-97.38028717041016	1257.311157226562	-465.2688293457031	172.9839019775391	1197.91845703125	-473.9476013183594	106.9629745483398	1463.205078125	-475.0663757324219	-67.47042083740234	1372.28369140625	-466.0299072265625	170.7269897460938	1325.4736328125	-548.104736328125	135.2150421142578	1429.740112304688	-374.8725280761719	35.09568786621094	1433.110107421875	-298.2424621582031	63.32078552246094	1313.601196289062	-216.3746185302734	59.44168090820312	1100.978515625	-177.8964996337891	114.0541229248047	1082.549926757812	-268.1187744140625	-47.17854309082031	865.0198364257812	-227.5562133789062	17.36355972290039	851.796142578125	-172.6697540283203	37.63848876953125	992.1880493164062	-164.9226531982422	-65.86994171142578	680.5192260742188	-247.6347045898438	-18.30231475830078	771.1520385742188	-175.7133178710938	-71.36131286621094	783.05126953125	-223.1798706054688	38.84689331054688	1423.465454101562	-645.1536865234375	52.58871841430664	1356.68017578125	-707.6742553710938	96.73146820068359	1104.275512695312	-763.0162353515625	79.78954315185547	1071.479858398438	-668.776611328125	-45.93081283569336	848.20947265625	-738.7996826171875	26.04591178894043	837.526611328125	-787.6693115234375	85.12187194824219	1021.369079589844	-777.800048828125	-30.21218490600586	657.9281616210938	-718.4500732421875	-58.93067932128906	740.7000732421875	-740.499755859375	-1.231866121292114	745.2155151367188	-789.7535400390625	92.57577514648438	1630.371459960938	-496.1901245117188	-114.2301712036133	1678.425170898438	-462.1065063476562	-26.47200393676758	1679.662353515625	-371.789306640625	-11.35902309417725	1622.0205078125	-586.4808959960938	73.64668273925781	928.3804931640625	-304.8038635253906	79.49331665039062	938.3614501953125	-645.5386962890625	-43.76123809814453	957.0045776367188	-619.986572265625	-39.16373443603516	942.9310913085938	-352.4856262207031	-110.8093566894531	498.7605590820312	-431.353759765625	-41.25666427612305	616.1707153320312	-366.5999450683594	-49.79646682739258	44.88858795166016	-497.3231811523438	-81.51784515380859	247.7168731689453	-456.2017822265625	-256.1861877441406	40.0988655090332	-503.96484375	-208.5132293701172	38.11502075195312	-557.2607421875	-151.8477783203125	39.99508666992188	-459.9697875976562	0.2876738607883453	42.33187484741211	-576.2454223632812	-61.76551818847656	504.3020324707031	-679.18017578125	-24.29407501220703	775.9356079101562	-665.8309326171875	342.7548217773438	222.2617797851562	-692.6679077148438	23.9549617767334	413.4873046875	-693.392333984375	207.96875	60.84228515625	-682.6423950195312	237.3625793457031	103.0475540161133	-635.9659423828125	273.3589782714844	127.8644714355469	-725.4775390625	358.2461853027344	256.94580078125	-631.6702270507812	
